{"accessors":[{"bufferView":0,"byteOffset":0,"componentType":5126,"count":1290,"max":[56.9000015258789,4.5,3.0],"min":[-3.0,-1.5,-29.5],"normalized":false,"type":"VEC3"},{"bufferView":1,"byteOffset":0,"componentType":5126,"count":1290,"max":[1.0,0.0,1.0,1.0],"min":[-1.0,-1.0,-1.0,1.0],"normalized":false,"type":"VEC4"},{"bufferView":2,"byteOffset":0,"componentType":5126,"count":1290,"max":[1.0,1.0,1.0],"min":[-1.0,-1.0,-1.0],"normalized":false,"type":"VEC3"},{"bufferView":3,"byteOffset":0,"componentType":5126,"count":1290,"max":[1.0,1.0],"min":[0.0,0.0],"normalized":false,"type":"VEC2"},{"bufferView":4,"byteOffset":0,"componentType":5123,"count":1290,"max":[1289.0],"min":[0.0],"normalized":false,"type":"SCALAR"},{"bufferView":5,"byteOffset":0,"componentType":5126,"count":378,"max":[0.75,3.0,0.75],"min":[-0.75,-3.0,-0.75],"normalized":false,"type":"VEC3"},{"bufferView":6,"byteOffset":0,"componentType":5126,"count":378,"max":[1.0,0.000064429194026161,0.999461531639099,1.0],"min":[-0.999462604522705,-0.0000215679337998154,-0.999463200569153,-1.0],"normalized":false,"type":"VEC4"},{"bufferView":7,"byteOffset":0,"componentType":5126,"count":378,"max":[0.999461650848389,1.0,0.999461591243744],"min":[-0.99946266412735,-1.0,-0.999461054801941],"normalized":false,"type":"VEC3"},{"bufferView":8,"byteOffset":0,"componentType":5126,"count":378,"max":[1.0,1.0],"min":[0.0,0.0],"normalized":false,"type":"VEC2"},{"bufferView":9,"byteOffset":0,"componentType":5123,"count":378,"max":[377.0],"min":[0.0],"normalized":false,"type":"SCALAR"},{"bufferView":10,"byteOffset":0,"componentType":5126,"count":378,"max":[0.75,3.0,0.75],"min":[-0.75,-3.0,-0.75],"normalized":false,"type":"VEC3"},{"bufferView":11,"byteOffset":0,"componentType":5126,"count":378,"max":[1.0,0.000064429194026161,0.999461531639099,1.0],"min":[-0.999462604522705,-0.0000215679337998154,-0.999463200569153,-1.0],"normalized":false,"type":"VEC4"},{"bufferView":12,"byteOffset":0,"componentType":5126,"count":378,"max":[0.999461650848389,1.0,0.999461591243744],"min":[-0.99946266412735,-1.0,-0.999461054801941],"normalized":false,"type":"VEC3"},{"bufferView":13,"byteOffset":0,"componentType":5126,"count":378,"max":[1.0,1.0],"min":[0.0,0.0],"normalized":false,"type":"VEC2"},{"bufferView":14,"byteOffset":0,"componentType":5123,"count":378,"max":[377.0],"min":[0.0],"normalized":false,"type":"SCALAR"},{"bufferView":15,"byteOffset":0,"componentType":5126,"count":378,"max":[0.75,3.0,0.75],"min":[-0.75,-3.0,-0.75],"normalized":false,"type":"VEC3"},{"bufferView":16,"byteOffset":0,"componentType":5126,"count":378,"max":[1.0,0.000064429194026161,0.999461531639099,1.0],"min":[-0.999462604522705,-0.0000215679337998154,-0.999463200569153,-1.0],"normalized":false,"type":"VEC4"},{"bufferView":17,"byteOffset":0,"componentType":5126,"count":378,"max":[0.999461650848389,1.0,0.999461591243744],"min":[-0.99946266412735,-1.0,-0.999461054801941],"normalized":false,"type":"VEC3"},{"bufferView":18,"byteOffset":0,"componentType":5126,"count":378,"max":[1.0,1.0],"min":[0.0,0.0],"normalized":false,"type":"VEC2"},{"bufferView":19,"byteOffset":0,"componentType":5123,"count":378,"max":[377.0],"min":[0.0],"normalized":false,"type":"SCALAR"},{"bufferView":20,"byteOffset":0,"componentType":5126,"count":378,"max":[0.75,3.0,0.75],"min":[-0.75,-3.0,-0.75],"normalized":false,"type":"VEC3"},{"bufferView":21,"byteOffset":0,"componentType":5126,"count":378,"max":[1.0,0.000064429194026161,0.999461531639099,1.0],"min":[-0.999462604522705,-0.0000215679337998154,-0.999463200569153,-1.0],"normalized":false,"type":"VEC4"},{"bufferView":22,"byteOffset":0,"componentType":5126,"count":378,"max":[0.999461650848389,1.0,0.999461591243744],"min":[-0.99946266412735,-1.0,-0.999461054801941],"normalized":false,"type":"VEC3"},{"bufferView":23,"byteOffset":0,"componentType":5126,"count":378,"max":[1.0,1.0],"min":[0.0,0.0],"normalized":false,"type":"VEC2"},{"bufferView":24,"byteOffset":0,"componentType":5123,"count":378,"max":[377.0],"min":[0.0],"normalized":false,"type":"SCALAR"},{"bufferView":25,"byteOffset":0,"componentType":5126,"count":2112,"max":[0.25,0.25,0.25],"min":[-0.25,-0.25,-0.25],"normalized":false,"type":"VEC3"},{"bufferView":26,"byteOffset":0,"componentType":5126,"count":2112,"max":[1.0,0.0469861887395382,1.0,1.0],"min":[-1.0,-0.0513194389641285,-1.0,1.0],"normalized":false,"type":"VEC4"},{"bufferView":27,"byteOffset":0,"componentType":5126,"count":2112,"max":[1.0,1.0,1.0],"min":[-1.0,-1.0,-1.0],"normalized":false,"type":"VEC3"},{"bufferView":28,"byteOffset":0,"componentType":5126,"count":2112,"max":[1.0,1.0],"min":[0.0,0.0],"normalized":false,"type":"VEC2"},{"bufferView":29,"byteOffset":0,"componentType":5123,"count":2112,"max":[2111.0],"min":[0.0],"normalized":false,"type":"SCALAR"}],"asset":{"generator":"Godot Engine v4.4.1.stable.official@49a5bc7b616bd04689a2c89e89bda41f50241464","version":"2.0"},"bufferViews":[{"buffer":0,"byteLength":15480,"byteOffset":0,"byteStride":12,"target":34962},{"buffer":0,"byteLength":20640,"byteOffset":15480,"byteStride":16,"target":34962},{"buffer":0,"byteLength":15480,"byteOffset":36120,"byteStride":12,"target":34962},{"buffer":0,"byteLength":10320,"byteOffset":51600,"byteStride":8,"target":34962},{"buffer":0,"byteLength":2580,"byteOffset":61920,"target":34963},{"buffer":0,"byteLength":4536,"byteOffset":64500,"byteStride":12,"target":34962},{"buffer":0,"byteLength":6048,"byteOffset":69036,"byteStride":16,"target":34962},{"buffer":0,"byteLength":4536,"byteOffset":75084,"byteStride":12,"target":34962},{"buffer":0,"byteLength":3024,"byteOffset":79620,"byteStride":8,"target":34962},{"buffer":0,"byteLength":756,"byteOffset":82644,"target":34963},{"buffer":0,"byteLength":4536,"byteOffset":83400,"byteStride":12,"target":34962},{"buffer":0,"byteLength":6048,"byteOffset":87936,"byteStride":16,"target":34962},{"buffer":0,"byteLength":4536,"byteOffset":93984,"byteStride":12,"target":34962},{"buffer":0,"byteLength":3024,"byteOffset":98520,"byteStride":8,"target":34962},{"buffer":0,"byteLength":756,"byteOffset":101544,"target":34963},{"buffer":0,"byteLength":4536,"byteOffset":102300,"byteStride":12,"target":34962},{"buffer":0,"byteLength":6048,"byteOffset":106836,"byteStride":16,"target":34962},{"buffer":0,"byteLength":4536,"byteOffset":112884,"byteStride":12,"target":34962},{"buffer":0,"byteLength":3024,"byteOffset":117420,"byteStride":8,"target":34962},{"buffer":0,"byteLength":756,"byteOffset":120444,"target":34963},{"buffer":0,"byteLength":4536,"byteOffset":121200,"byteStride":12,"target":34962},{"buffer":0,"byteLength":6048,"byteOffset":125736,"byteStride":16,"target":34962},{"buffer":0,"byteLength":4536,"byteOffset":131784,"byteStride":12,"target":34962},{"buffer":0,"byteLength":3024,"byteOffset":136320,"byteStride":8,"target":34962},{"buffer":0,"byteLength":756,"byteOffset":139344,"target":34963},{"buffer":0,"byteLength":25344,"byteOffset":140100,"byteStride":12,"target":34962},{"buffer":0,"byteLength":33792,"byteOffset":165444,"byteStride":16,"target":34962},{"buffer":0,"byteLength":25344,"byteOffset":199236,"byteStride":12,"target":34962},{"buffer":0,"byteLength":16896,"byteOffset":224580,"byteStride":8,"target":34962},{"buffer":0,"byteLength":4224,"byteOffset":241476,"target":34963}],"buffers":[{"byteLength":245700,"uri":"main_level0.bin"}],"extensions":{"KHR_lights_punctual":{"lights":[{"type":"directional"}]}},"extensionsUsed":["GODOT_single_root","KHR_lights_punctual","KHR_materials_emissive_strength"],"images":[{"uri":"textures%2F_albedo000.png"}],"materials":[{"extensions":{},"pbrMetallicRoughness":{"baseColorFactor":[1.0,1.0,1.0,1.0],"baseColorTexture":{"index":0},"metallicFactor":0.0,"roughnessFactor":1.0}},{"emissiveFactor":[1.0,0.908292472362518,0.395030081272125],"extensions":{"KHR_materials_emissive_strength":{"emissiveStrength":2.3199999332428}},"pbrMetallicRoughness":{"baseColorFactor":[1.0,0.610495567321777,0.0152085144072771,1.0],"metallicFactor":0.0,"roughnessFactor":1.0}}],"meshes":[{"extras":{"targetNames":[]},"primitives":[{"attributes":{"NORMAL":2,"POSITION":0,"TANGENT":1,"TEXCOORD_0":3},"indices":4,"material":0,"mode":4}]},{"extras":{"targetNames":[]},"primitives":[{"attributes":{"NORMAL":7,"POSITION":5,"TANGENT":6,"TEXCOORD_0":8},"indices":9,"material":0,"mode":4}]},{"extras":{"targetNames":[]},"primitives":[{"attributes":{"NORMAL":12,"POSITION":10,"TANGENT":11,"TEXCOORD_0":13},"indices":14,"material":0,"mode":4}]},{"extras":{"targetNames":[]},"primitives":[{"attributes":{"NORMAL":17,"POSITION":15,"TANGENT":16,"TEXCOORD_0":18},"indices":19,"material":0,"mode":4}]},{"extras":{"targetNames":[]},"primitives":[{"attributes":{"NORMAL":22,"POSITION":20,"TANGENT":21,"TEXCOORD_0":23},"indices":24,"material":0,"mode":4}]},{"extras":{"targetNames":[]},"primitives":[{"attributes":{"NORMAL":27,"POSITION":25,"TANGENT":26,"TEXCOORD_0":28},"indices":29,"material":1,"mode":4}]}],"nodes":[{"children":[1,2,3,28,29,30,31,32],"name":"MainLevel"},{"name":"WorldEnvironment"},{"extensions":{"KHR_lights_punctual":{"light":0}},"name":"DirectionalLight3D","rotation":[-0.129410669207573,0.836515367031097,0.482963532209396,0.22414530813694]},{"children":[4],"mesh":0,"name":"Room2","translation":[-26.5,1.5,12.5]},{"children":[5,6,7,8,9,10,11,12,13,14,15,16,17,18,19,20,21,22,23,24,25,26,27],"name":"CSGCombiner3D"},{"name":"Room22","translation":[2.5,0.0,-11.5]},{"name":"Courtyard","translation":[26.5,1.5,-12.5]},{"name":"Room4","translation":[42.2000007629395,0.0,-18.5]},{"name":"Room5","translation":[42.2000007629395,0.0,-7.5]},{"name":"Room6","translation":[52.4000015258789,3.0,-1.5]},{"name":"Lava3","translation":[52.4000015258789,1.0,-5.0]},{"name":"Room7","translation":[52.0999984741211,3.0,-25.0]},{"name":"Room8","translation":[10.5,3.0,-22.8999996185303]},{"name":"Room9","translation":[1.5,3.0,-22.3999996185303]},{"name":"Lava","translation":[8.20000076293945,1.0,-21.8999996185303]},{"name":"Lava2","translation":[12.2000007629395,1.0,-23.8999996185303]},{"name":"Corridor","rotation":[0.0,1.0,0.0,-0.0000000437113882867379],"translation":[0.0,-0.25,-5.5]},{"name":"Corridor2","rotation":[0.0,0.70710676908493,0.0,0.70710676908493],"translation":[12.5,-0.25,-12.5]},{"name":"Corridor3","rotation":[0.0,0.70710676908493,0.0,0.70710676908493],"translation":[39.5,-0.25,-12.5]},{"name":"Corridor4","rotation":[0.0,1.0,0.0,-0.0000000437113882867379],"translation":[42.5,-0.25,-12.5]},{"name":"Corridor5","rotation":[0.0,1.0,0.0,-0.0000000437113882867379],"translation":[52.2999992370605,2.75,-13.1999998092651]},{"name":"Corridor6","rotation":[0.0,-0.707106709480286,0.0,0.707106828689575],"translation":[36.6999969482422,2.75,-1.0]},{"name":"Corridor7","rotation":[0.0,-0.707106709480286,0.0,0.707106828689575],"translation":[34.1999969482422,2.75,-27.6000003814697]},{"name":"Corridor8","rotation":[0.0,-0.707106709480286,0.0,0.707106828689575],"translation":[20.6999969482422,2.75,-23.6000003814697]},{"name":"Corridor10","translation":[26.1999969482422,2.75,-26.1000003814697]},{"name":"Corridor9","translation":[26.1999988555908,1.5,-21.6000003814697]},{"name":"Corridor12","translation":[42.1999969482422,1.5,-23.6000022888184]},{"name":"Corridor11","translation":[26.1999988555908,1.5,-3.60000038146973]},{"mesh":1,"name":"Pillar2","translation":[6.0,3.0,-3.0]},{"mesh":2,"name":"Pillar23","translation":[-6.0,3.0,-3.0]},{"mesh":3,"name":"Pillar32","translation":[-6.0,3.0,3.0]},{"mesh":4,"name":"Pillar42","translation":[6.0,3.0,3.0]},{"mesh":5,"name":"Key2","translation":[-28.0,3.40000009536743,-10.0]}],"samplers":[{"magFilter":9729,"minFilter":9987,"wrapS":10497,"wrapT":10497}],"scene":0,"scenes":[{"nodes":[0]}],"textures":[{"sampler":0,"source":0}]}